<svg width="17" height="16" viewBox="0 0 17 16" fill="none" xmlns="http://www.w3.org/2000/svg">
<path d="M7.24696 1.34112C10.2363 1.55016 12.5115 4.18706 12.2967 7.25857C12.0817 10.3299 9.46173 12.6247 6.47256 12.4156C3.48355 12.2064 1.20928 9.56947 1.42382 6.49827C1.63859 3.42688 4.25779 1.13229 7.24696 1.34112Z" stroke="#858585" stroke-width="1.8"/>
<path d="M11.9648 10.2378C11.6055 9.89438 11.0403 9.91152 10.7025 10.2761C10.3646 10.6407 10.382 11.2146 10.7413 11.5581L11.3531 10.8979L11.9648 10.2378ZM15.0852 15.7099C15.4445 16.0534 16.0097 16.0362 16.3476 15.6716C16.6854 15.307 16.668 14.7331 16.3087 14.3896L15.697 15.0498L15.0852 15.7099ZM11.3531 10.8979L10.7413 11.5581L15.0852 15.7099L15.697 15.0498L16.3087 14.3896L11.9648 10.2378L11.3531 10.8979Z" fill="#858585"/>
</svg>
