<svg width="34" height="31" viewBox="0 0 34 31" fill="none" xmlns="http://www.w3.org/2000/svg">
<g clip-path="url(#clip0_1869_4104)">
<path d="M25.3655 0.998142C27.7903 1.16477 29.4683 2.68648 30.1395 4.84485C30.6311 6.42786 33.5018 5.13724 33.8799 6.73283C34.548 9.54201 32.3201 12.4518 30.0276 12.4722L28.2866 12.4864C27.8801 12.4895 27.4705 12.7175 27.3807 13.145L26.2132 18.7084C25.9942 19.7506 25.5341 20.5838 25.1103 21.5191C24.8645 22.063 25.104 22.8459 25.0488 23.4527L31.296 29.8115C31.6757 30.1982 30.8816 30.8836 30.5318 30.9716C29.9835 31.1084 29.6968 30.7563 29.2871 30.3507L14.1963 15.4087L4.7791 6.09774L0.116985 1.43516C-0.176072 1.14277 0.15795 0.592564 0.320234 0.383487C0.503 0.15083 1.14741 -0.191868 1.47355 0.133538L14.0072 12.5791C14.3475 12.8825 15.0818 12.5115 15.3449 12.2804L16.3343 11.4064C17.8374 13.2331 20.1598 14.2785 22.3593 13.6308C23.6245 13.2582 24.3319 12.26 24.6423 11.0181L25.7058 6.76427C25.8382 6.23293 25.4774 5.8022 25.052 5.73932C24.5116 5.65915 24.1508 5.9594 24.0168 6.48445L22.8304 11.125C22.6571 11.8041 21.7827 12.0698 21.1587 12.1201C20.2244 12.1956 19.5595 11.7318 18.7733 11.2806C17.8122 10.7273 17.1584 9.50113 17.7744 8.39444L20.6325 3.26183C21.5353 1.63952 23.4811 0.869237 25.3639 0.998142H25.3655Z" fill="#BCBCBC"/>
<path d="M9.92017 22.3793C9.35612 23.8004 8.35878 24.8207 6.91556 25.3394L6.84938 29.1248C6.8289 30.2535 5.80163 30.6025 4.8169 30.6261C3.75496 30.6513 2.66624 30.1875 2.66309 28.9346L2.64103 18.0092C2.63946 17.2027 2.87106 16.5299 3.18145 15.8021C1.63424 14.2631 0.914204 12.1409 1.4436 10.0752C1.62951 9.35055 2.40627 8.94497 2.97348 9.06759C3.7912 9.24365 4.16933 9.88503 4.03856 10.7858C3.89046 11.7997 4.29065 13.3529 5.49124 13.5604L8.1256 13.1234C8.75425 13.0196 8.94647 13.1564 9.39393 13.6028L18.184 22.4076L11.4422 22.4752L9.92175 22.3778L9.92017 22.3793Z" fill="#BCBCBC"/>
<path d="M25.1891 29.077C25.145 30.1994 24.2248 30.649 23.259 30.5971C22.6414 30.5641 22.1183 30.6239 21.6551 30.2073C21.2738 29.8646 20.9949 29.3364 20.9776 28.6793L20.8831 24.9678L25.1891 29.0754V29.077Z" fill="#BCBCBC"/>
</g>
<defs>
<clipPath id="clip0_1869_4104">
<rect width="34" height="31" fill="white"/>
</clipPath>
</defs>
</svg>
